<?xml version="1.0" standalone="no"?>
<!DOCTYPE svg PUBLIC "-//W3C//DTD SVG 1.1//EN" "http://www.w3.org/Graphics/SVG/1.1/DTD/svg11.dtd" >
<svg xmlns="http://www.w3.org/2000/svg" xmlns:xlink="http://www.w3.org/1999/xlink" version="1.1">
<metadata>
Created by FontForge 20201107 at Mon Aug 12 17:57:41 2019
 By Jimmy Wärting
This font was created using FontCreator 11.5 from High-Logic.com
</metadata>
<defs>
<font id="Cano" horiz-adv-x="1122" >
  <font-face 
    font-family="Cano"
    font-weight="400"
    font-stretch="normal"
    units-per-em="2048"
    panose-1="2 0 5 0 0 0 0 0 0 0"
    ascent="1638"
    descent="-410"
    x-height="894"
    cap-height="1438"
    bbox="0 -419 1956 1554"
    underline-thickness="150"
    underline-position="-292"
    unicode-range="U+001D-F002"
  />
<missing-glyph horiz-adv-x="1024" 
d="M924 0h-824v1434h824v-1434zM150 1384v-1334h724v1334h-724zM325 1103v45c21 19 40 33 58 43c35 20 73 30 112 30c123 0 204 -68 204 -175c0 -33 -8 -66 -23 -99s-44 -76 -87 -129c-84 -107 -135 -168 -135 -231c0 -25 8 -70 24 -133h-32c-23 65 -35 114 -35 148
c0 51 27 123 81 218c55 95 82 167 82 217c0 76 -47 123 -124 123c-25 0 -48 -6 -69 -17c-17 -10 -36 -23 -56 -40zM389 334l57 58c7 7 14 10 20 10c7 0 14 -4 22 -11l56 -60c6 -7 9 -14 9 -20c0 -7 -3 -15 -10 -22l-56 -62c-9 -9 -16 -14 -21 -14c-7 0 -14 3 -20 10l-61 71
c-5 6 -7 12 -7 18c0 7 4 14 11 22z" />
    <glyph glyph-name=".notdef" horiz-adv-x="1024" 
d="M924 0h-824v1434h824v-1434zM150 1384v-1334h724v1334h-724zM325 1103v45c21 19 40 33 58 43c35 20 73 30 112 30c123 0 204 -68 204 -175c0 -33 -8 -66 -23 -99s-44 -76 -87 -129c-84 -107 -135 -168 -135 -231c0 -25 8 -70 24 -133h-32c-23 65 -35 114 -35 148
c0 51 27 123 81 218c55 95 82 167 82 217c0 76 -47 123 -124 123c-25 0 -48 -6 -69 -17c-17 -10 -36 -23 -56 -40zM389 334l57 58c7 7 14 10 20 10c7 0 14 -4 22 -11l56 -60c6 -7 9 -14 9 -20c0 -7 -3 -15 -10 -22l-56 -62c-9 -9 -16 -14 -21 -14c-7 0 -14 3 -20 10l-61 71
c-5 6 -7 12 -7 18c0 7 4 14 11 22z" />
    <glyph glyph-name="uni0000" horiz-adv-x="0" 
 />
    <glyph glyph-name="uni0000" horiz-adv-x="0" 
 />
    <glyph glyph-name="CR" horiz-adv-x="508" 
 />
    <glyph glyph-name="space" unicode=" " horiz-adv-x="508" 
 />
    <glyph glyph-name="space" unicode="&#xa0;" horiz-adv-x="508" 
 />
    <glyph glyph-name="exclam" unicode="!" horiz-adv-x="374" 
d="M109 342c-60 0 -109 49 -109 109v967h218v-967c0 -60 -49 -109 -109 -109zM112 -4c-31 0 -58 11 -80 33c-21 22 -32 48 -32 79c0 63 49 112 112 112c31 0 57 -11 79 -33c22 -21 33 -48 33 -79s-11 -57 -33 -79s-48 -33 -79 -33z" />
    <glyph glyph-name="quotedbl" unicode="&#x22;" horiz-adv-x="646" 
d="M38 1120c-12 0 -25 2 -38 5l13 19c8 12 17 28 27 49c19 39 29 74 29 107c0 11 -1 21 -3 31c-33 21 -51 53 -53 95c0 61 47 109 108 113c33 0 60 -11 82 -33c23 -21 34 -48 34 -79l-1 -27c-2 -53 -21 -160 -107 -244c-27 -24 -58 -36 -91 -36zM297 1120c-12 0 -25 2 -38 5
l13 19c8 12 17 28 27 49c19 39 29 75 29 107c0 10 -1 20 -3 31c-33 21 -51 53 -53 95c1 61 48 109 109 113c65 0 115 -49 115 -112v-27c-2 -53 -22 -161 -107 -244c-28 -24 -59 -36 -92 -36z" />
    <glyph glyph-name="numbersign" unicode="#" horiz-adv-x="1054" 
d="M474 271h-39l56 205h-245l-28 -103c-26 -68 -70 -102 -133 -102h-39l56 205h-102c0 43 13 77 40 104s61 41 101 41l65 239h-100c0 43 14 77 41 104s60 41 98 41l30 110c27 69 71 103 133 103h39l-58 -213h245l30 110c27 69 71 103 133 103h39l-58 -213h126v-6
c0 -39 -14 -72 -41 -99s-59 -40 -97 -40h-27l-65 -239h123c0 -43 -14 -78 -41 -105s-59 -40 -97 -40h-24l-27 -103c-27 -68 -71 -102 -134 -102zM285 621h245l65 239h-245z" />
    <glyph glyph-name="dollar" unicode="$" horiz-adv-x="972" 
d="M782 698v-1c27 -44 40 -93 40 -147s-13 -103 -40 -148c-60 -95 -143 -142 -250 -142h-39v-47c0 -45 -16 -84 -48 -116s-70 -48 -115 -48v211h-330c0 39 14 73 42 100c28 28 62 42 101 42h187v296h-57c-103 10 -180 57 -232 141v1c-27 44 -41 93 -41 147s14 103 41 148
c13 21 27 40 44 57c57 57 125 85 205 85h40v47c0 45 16 84 47 115c32 32 71 48 116 48v-210h329c0 -39 -14 -73 -42 -101c-27 -27 -61 -41 -100 -41h-187v-296h56c75 -5 138 -33 188 -84c17 -17 32 -36 45 -57zM290 839h40v296h-40c-41 0 -75 -15 -104 -44s-43 -63 -43 -104
c0 -39 13 -72 39 -100s58 -44 97 -47c4 -1 8 -1 11 -1zM679 531c4 50 -10 91 -42 123c-25 25 -55 39 -92 43c-4 1 -8 1 -13 1h-39v-296h36c75 0 139 53 150 129z" />
    <glyph glyph-name="percent" unicode="%" horiz-adv-x="1052" 
d="M848 650c36 -36 54 -80 54 -131v-232c0 -51 -18 -95 -54 -131c-11 -11 -24 -21 -38 -29c-28 -17 -59 -25 -93 -25s-65 8 -93 25c-14 8 -27 18 -38 29c-36 36 -54 80 -54 131v232c0 69 31 122 92 160c28 17 59 25 93 25s65 -8 93 -25c14 -8 27 -18 38 -29zM810 287v223
c1 3 1 6 1 9s0 7 -1 10c-5 48 -45 84 -93 84c-26 0 -48 -9 -66 -27c-15 -15 -24 -34 -27 -57c-1 -3 -1 -7 -1 -10s0 -6 1 -9v-209c-1 -5 -1 -9 -1 -14s0 -9 1 -13c3 -21 12 -39 26 -53c19 -19 41 -28 67 -28c25 0 47 9 66 28c18 18 27 40 27 66zM315 1293
c36 -36 54 -80 54 -131v-232c0 -51 -18 -95 -54 -131c-11 -11 -24 -21 -37 -29c-28 -17 -59 -25 -93 -25c-35 0 -66 8 -94 25c-13 8 -26 18 -37 29c-36 36 -54 80 -54 131v232c0 69 30 122 91 160c28 17 59 25 94 25c34 0 65 -8 93 -25c13 -8 26 -18 37 -29zM278 930v223v9
v10c-7 48 -45 84 -93 84c-26 0 -48 -9 -67 -27c-15 -15 -24 -34 -27 -57v-10v-9v-209c-1 -5 -1 -9 -1 -14s0 -9 1 -13c3 -21 12 -39 27 -53c18 -19 40 -28 66 -28s48 9 66 28c19 18 28 40 28 66zM857 1347l-564 -1094c-61 -101 -144 -151 -249 -151l565 1094
c61 101 143 151 248 151z" />
    <glyph glyph-name="ampersand" unicode="&#x26;" horiz-adv-x="1436" 
d="M872 269l2 1l-2 2l-1 1c0 -1 0 -1 -1 -2c-9 -11 -18 -22 -28 -32zM523 613l2 1l-2 2l-120 119c-1 -1 -1 -1 -2 -1zM659 1054l-33 -32c13 9 24 19 33 32zM837 235l-10 -10l15 14c-1 -1 -3 -3 -5 -4zM717 425l-3 3v-1l-1 -1c-8 -12 -17 -23 -26 -33l30 29l1 2zM1112 653
h174l-331 -320l331 -324h-101c-148 0 -280 54 -395 162l-2 2l-1 1c0 -1 0 -1 -1 -2c-9 -11 -18 -22 -28 -32l-14 -14h-1c-84 -80 -185 -120 -302 -120c-39 0 -77 5 -114 15c-77 21 -143 59 -198 114c-12 13 -24 26 -35 40c-49 62 -79 134 -90 216c-3 19 -4 38 -4 57
c0 121 43 225 129 312c10 10 21 19 32 28c-71 75 -107 164 -107 268c0 107 38 199 113 275c76 75 167 113 274 113s199 -38 275 -113c75 -76 113 -168 113 -275v-5c-3 -95 -33 -176 -91 -244l-133 -130l-1 -2l193 -190l2 2l70 70c71 64 152 96 243 96zM322 1176
c-33 -33 -49 -72 -49 -119s16 -86 49 -119c14 -13 126 -108 125 -107l2 -1l93 92c13 9 24 20 33 33c23 29 35 63 35 102c0 47 -16 86 -49 119s-73 50 -120 50c-46 0 -86 -17 -119 -50zM603 294l30 29l1 2l-1 1l-3 2l-1 1l-188 186l-2 2l-120 119c-1 -1 -1 -1 -2 -1
c-12 -9 -23 -18 -34 -28c-43 -44 -65 -97 -65 -158c0 -44 11 -84 34 -119c9 -15 19 -28 31 -40c44 -43 97 -65 158 -65c60 0 112 21 155 62c1 1 3 2 4 3l2 3z" />
    <glyph glyph-name="quotesingle" unicode="'" horiz-adv-x="387" 
d="M38 1120c-12 0 -25 2 -38 5l13 19c8 12 17 28 27 49c19 39 29 76 29 109c0 10 -1 20 -2 29c-34 21 -52 53 -54 95c1 61 48 109 109 113c65 0 115 -49 115 -112v-27c-2 -53 -22 -161 -107 -244c-28 -24 -59 -36 -92 -36z" />
    <glyph glyph-name="parenleft" unicode="(" horiz-adv-x="520" 
d="M77 1222c18 68 54 123 108 165s116 63 185 63c-89 -193 -140 -375 -155 -548c-14 -173 -8 -326 17 -461c26 -135 55 -241 88 -320c33 -78 50 -117 50 -117h-2c-69 0 -130 21 -184 62c-53 41 -90 96 -109 163c-50 204 -70 392 -60 564s31 315 62 429z" />
    <glyph glyph-name="parenright" unicode=")" horiz-adv-x="519" 
d="M292 1222c31 -114 52 -257 62 -429s-10 -360 -60 -564c-19 -67 -56 -122 -110 -163c-53 -41 -114 -62 -182 -62h-2s16 39 49 117c33 79 62 185 87 320c26 135 32 288 18 461s-65 355 -154 548c69 0 130 -21 184 -63s90 -97 108 -165z" />
    <glyph glyph-name="asterisk" unicode="*" horiz-adv-x="712" 
d="M562 1320l-212 -178l212 -178c-43 -33 -95 -33 -139 0l-93 78v-144c0 -27 -22 -49 -49 -49s-49 22 -49 49v144l-94 -78c-43 -33 -95 -33 -138 0l211 178l-211 178c43 33 95 33 138 0l94 -79v145c0 27 22 49 49 49s49 -22 49 -49v-145l93 79c44 33 96 33 139 0z" />
    <glyph glyph-name="plus" unicode="+" horiz-adv-x="1237" 
d="M621 1300v-466h466v-46c0 -60 -50 -109 -110 -109h-356v-357c0 -60 -49 -109 -110 -109h-45v466h-466v46c0 60 49 109 109 109h357v356c0 61 49 110 109 110h46z" />
    <glyph glyph-name="comma" unicode="," horiz-adv-x="388" 
d="M38 -194c-12 0 -25 2 -38 5l13 19c9 12 18 28 28 49c19 38 28 74 28 109c0 10 -1 20 -2 29c-33 21 -51 53 -54 94c1 63 48 110 109 113c65 0 116 -48 116 -112l-1 -26c-2 -53 -21 -162 -107 -244c-28 -24 -59 -36 -92 -36z" />
    <glyph glyph-name="hyphen" unicode="-" horiz-adv-x="707" 
d="M557 681c0 -61 -21 -112 -64 -155s-94 -64 -155 -64h-338c0 61 21 112 64 155s94 64 154 64h339z" />
    <glyph glyph-name="hyphen" unicode="&#xad;" horiz-adv-x="707" 
d="M557 681c0 -61 -21 -112 -64 -155s-94 -64 -155 -64h-338c0 61 21 112 64 155s94 64 154 64h339z" />
    <glyph glyph-name="period" unicode="." horiz-adv-x="374" 
d="M112 0c-31 0 -57 11 -79 33s-33 48 -33 79s11 58 33 79c22 22 48 33 79 33s57 -11 79 -33c22 -21 33 -48 33 -79s-11 -57 -33 -79s-48 -33 -79 -33z" />
    <glyph glyph-name="slash" unicode="/" horiz-adv-x="1215" 
d="M1065 1439l-736 -1257c-84 -125 -194 -188 -329 -188l736 1256c84 126 194 189 329 189z" />
    <glyph glyph-name="zero" unicode="0" horiz-adv-x="1033" 
d="M753 1309c87 -86 130 -190 130 -312v-555c0 -122 -43 -226 -130 -313c-27 -27 -56 -50 -89 -69c-67 -40 -142 -60 -223 -60s-155 20 -222 60c-33 19 -63 42 -90 69c-86 87 -129 191 -129 313v555c0 163 73 290 219 381c67 40 141 60 222 60s156 -20 223 -60
c33 -19 62 -42 89 -69zM664 453v531c1 7 1 15 1 23s0 16 -1 23c-7 57 -32 105 -74 143c-41 39 -91 58 -149 58c-61 0 -114 -22 -158 -66c-37 -37 -58 -82 -64 -135c-1 -7 -1 -15 -1 -23s0 -16 1 -23v-499c-2 -11 -3 -21 -3 -32s1 -22 3 -32c7 -50 28 -92 63 -127
c43 -43 96 -65 158 -65s115 22 158 65c44 44 66 97 66 159z" />
    <glyph glyph-name="one" unicode="1" horiz-adv-x="369" 
d="M219 0h-219v1215c0 61 21 112 64 155s94 64 155 64v-1434z" />
    <glyph glyph-name="two" unicode="2" horiz-adv-x="1032" 
d="M882 0h-882v555c0 72 29 131 88 176c38 29 81 43 130 43h192c11 -1 21 -2 32 -2s21 1 32 2c50 8 92 29 126 63c44 44 66 97 66 158c0 62 -22 115 -66 159c-43 43 -96 65 -158 65h-224c-49 0 -92 14 -130 43c-59 45 -88 104 -88 176h441c122 0 226 -43 312 -129
c27 -27 50 -57 69 -90c40 -67 60 -141 60 -222s-20 -156 -60 -223c-19 -33 -42 -63 -69 -90c-86 -86 -190 -129 -312 -129h-223v-337h446c60 0 111 -21 154 -64s64 -94 64 -154z" />
    <glyph glyph-name="three" unicode="3" horiz-adv-x="1033" 
d="M749 757c29 -27 53 -58 73 -93c41 -67 61 -142 61 -223c0 -99 -30 -188 -89 -265c-13 -17 -26 -32 -41 -47c-27 -27 -56 -50 -89 -69c-67 -40 -142 -60 -223 -60h-441c0 60 21 111 64 154c8 8 16 15 25 22c37 28 80 42 129 42h222c62 0 115 22 158 66c44 43 66 96 66 158
c0 55 -17 103 -52 144s-79 66 -132 76c-7 1 -14 1 -21 2h-51h-225v218h313c46 0 85 16 118 49s50 73 50 120s-16 86 -49 119s-73 49 -119 49h-278c-23 0 -46 4 -67 11c-15 5 -30 11 -44 20c-71 45 -107 108 -107 188h495c61 0 117 -13 169 -39c39 -19 74 -44 105 -75
c15 -15 29 -31 41 -48c49 -67 73 -142 73 -226c0 -60 -13 -116 -38 -168c-24 -48 -56 -90 -96 -125z" />
    <glyph glyph-name="four" unicode="4" horiz-adv-x="1033" 
d="M664 882v337c0 61 21 112 64 155s94 64 155 64v-556v-218v-664c-61 0 -112 21 -155 64s-64 94 -64 154v446h-445c-61 0 -112 21 -155 64s-64 94 -64 154v2v1v553c61 0 112 -21 155 -64s64 -94 64 -155v-337h445z" />
    <glyph glyph-name="five" unicode="5" horiz-adv-x="1033" 
d="M0 1438h883c0 -61 -21 -112 -64 -155s-94 -64 -155 -64h-445v-337h223c121 0 225 -43 312 -129c27 -27 50 -56 69 -89c40 -67 60 -142 60 -223s-20 -156 -60 -223c-19 -33 -42 -62 -69 -89c-87 -86 -191 -129 -312 -129h-442c0 72 30 131 89 176c38 28 81 42 130 42h224
c62 0 115 22 158 66c44 43 66 96 66 158s-22 115 -66 158c-34 35 -76 56 -126 64c-11 1 -21 2 -32 2s-21 -1 -32 -2h-192c-49 0 -92 14 -130 43c-59 45 -89 103 -89 175v556z" />
    <glyph glyph-name="six" unicode="6" horiz-adv-x="1033" 
d="M753 753c87 -86 130 -190 130 -312s-43 -226 -130 -312c-86 -86 -190 -129 -312 -129c-81 0 -155 20 -222 60c-33 19 -63 42 -90 69c-86 86 -129 190 -129 312v609c0 84 24 159 72 225c13 18 27 34 42 49c31 31 66 56 105 75c52 26 108 39 169 39h296
c0 -39 -9 -75 -28 -108c-45 -74 -109 -111 -190 -111h-79c-47 0 -86 -16 -119 -49s-49 -72 -49 -119v-229c67 40 141 60 222 60c92 0 175 -25 248 -76c23 -15 45 -33 64 -53zM602 277c43 43 65 96 65 158s-22 115 -65 158c-44 44 -97 66 -158 66c-14 0 -28 -1 -41 -4
c-53 -10 -97 -35 -132 -76c-34 -41 -51 -89 -51 -144c0 -62 22 -115 65 -158c44 -44 97 -66 159 -66c61 0 114 22 158 66z" />
    <glyph glyph-name="seven" unicode="7" horiz-adv-x="1033" 
d="M883 1330v-1v-2v-1v-6c0 -1 0 -3 -1 -5c0 -1 0 -3 -1 -5c0 -2 0 -4 -1 -6c0 -1 0 -3 -1 -4c-1 -2 -1 -4 -2 -7c0 -1 0 -2 -1 -3c-1 -2 -2 -4 -3 -7v-1l-609 -1282c-55 28 -93 69 -112 124s-17 110 8 167l441 928h-382c-60 0 -112 21 -155 64s-64 94 -64 155h774h1h1
c2 0 4 0 6 -1h5c2 0 4 0 5 -1c2 0 4 0 6 -1c1 0 3 0 4 -1c3 -1 5 -1 7 -2c1 0 1 0 2 -1h1c3 -1 5 -2 8 -3c0 -1 0 -1 1 -1h1c3 -1 5 -3 7 -4c1 -1 2 -1 3 -2c2 -1 4 -3 6 -4c1 -1 2 -1 3 -2c2 -1 4 -3 5 -4s2 -3 3 -4l4 -4c1 -1 3 -2 4 -3c1 -2 2 -4 3 -5h1c1 -1 1 -2 2 -3
c1 -2 3 -4 4 -6v-1c1 -1 1 -1 1 -2c1 -2 3 -4 4 -6v-1c1 -1 1 -1 1 -2c1 -3 2 -5 3 -7v-1c1 -1 1 -1 1 -2c1 -2 1 -4 2 -7c1 -1 1 -2 1 -3c1 -3 1 -5 1 -7c1 -1 1 -3 1 -4c0 -2 0 -4 1 -6v-6v-1z" />
    <glyph glyph-name="eight" unicode="8" horiz-adv-x="1033" 
d="M722 782c107 -90 161 -204 161 -341c0 -122 -43 -226 -130 -312c-86 -86 -190 -129 -312 -129c-121 0 -225 43 -312 129c-86 86 -129 190 -129 312s43 226 129 312c10 10 21 20 32 29c-71 75 -107 164 -107 268c0 107 38 199 113 274c76 76 167 114 274 114
s199 -38 275 -114c75 -75 113 -167 113 -274c0 -104 -36 -193 -107 -268zM322 1163c-33 -33 -49 -72 -49 -119s16 -86 49 -119s73 -50 119 -50c47 0 86 16 119 49s50 73 50 120s-17 86 -50 119s-72 49 -119 49c-46 0 -86 -16 -119 -49zM600 277c43 44 65 97 65 158
c0 57 -18 105 -54 146s-82 67 -137 76c-11 1 -22 2 -33 2s-22 -1 -33 -2c-49 -8 -91 -29 -125 -64c-43 -43 -65 -96 -65 -158c0 -61 22 -114 65 -158c44 -44 97 -66 158 -66c62 0 115 22 159 66z" />
    <glyph glyph-name="nine" unicode="9" horiz-adv-x="1032" 
d="M129 684c-86 87 -129 191 -129 313c0 121 43 225 129 312c86 86 190 129 312 129c81 0 156 -20 223 -60c33 -19 62 -42 89 -69c86 -87 129 -191 129 -312v-609c0 -84 -24 -159 -72 -226c-12 -17 -26 -34 -41 -49c-31 -31 -66 -55 -105 -74c-52 -26 -108 -39 -169 -39
h-297c0 39 10 74 29 107c45 74 109 111 190 111h79c46 0 86 17 119 50s49 72 49 119v228c-67 -40 -142 -60 -223 -60c-92 0 -175 25 -248 76c-23 16 -44 34 -64 53zM282 1147c-44 -44 -66 -97 -66 -159c0 -61 22 -114 66 -158c43 -43 96 -65 158 -65c14 0 27 1 40 3
c53 11 97 36 132 77s52 88 52 143c0 62 -22 115 -66 159c-43 43 -96 65 -158 65s-115 -22 -158 -65z" />
    <glyph glyph-name="colon" unicode=":" horiz-adv-x="374" 
d="M112 772c-31 0 -57 11 -79 33s-33 48 -33 79s11 57 33 79s48 33 79 33s58 -11 79 -33c22 -22 33 -48 33 -79s-11 -57 -33 -79c-21 -22 -48 -33 -79 -33zM112 279c-31 0 -57 11 -79 33s-33 48 -33 79s11 57 33 79s48 33 79 33s58 -11 79 -33c22 -22 33 -48 33 -79
s-11 -57 -33 -79c-21 -22 -48 -33 -79 -33z" />
    <glyph glyph-name="semicolon" unicode=";" horiz-adv-x="387" 
d="M125 772c-31 0 -57 11 -79 33s-33 48 -33 79s11 57 33 79s48 33 79 33s58 -11 79 -33c22 -22 33 -48 33 -79s-11 -57 -33 -79c-21 -22 -48 -33 -79 -33zM38 84c33 0 64 12 92 37c85 81 105 191 107 244v26c0 63 -50 112 -115 112c-61 -4 -108 -52 -109 -113
c2 -42 20 -73 54 -94c1 -9 2 -19 2 -29c0 -33 -10 -70 -29 -109c-10 -21 -19 -37 -27 -50l-13 -19c13 -3 25 -5 38 -5z" />
    <glyph glyph-name="semicolon" unicode="&#x37e;" horiz-adv-x="387" 
d="M125 772c-31 0 -57 11 -79 33s-33 48 -33 79s11 57 33 79s48 33 79 33s58 -11 79 -33c22 -22 33 -48 33 -79s-11 -57 -33 -79c-21 -22 -48 -33 -79 -33zM38 84c33 0 64 12 92 37c85 81 105 191 107 244v26c0 63 -50 112 -115 112c-61 -4 -108 -52 -109 -113
c2 -42 20 -73 54 -94c1 -9 2 -19 2 -29c0 -33 -10 -70 -29 -109c-10 -21 -19 -37 -27 -50l-13 -19c13 -3 25 -5 38 -5z" />
    <glyph glyph-name="less" unicode="&#x3c;" horiz-adv-x="1360" 
d="M1210 21l-1099 426c-47 19 -79 52 -98 97l-13 46l1 9l-1 9l13 47c19 45 51 77 98 96l1099 426v-51c0 -71 -37 -125 -111 -161l-943 -366l943 -365c74 -36 111 -90 111 -162v-51z" />
    <glyph glyph-name="equal" unicode="=" horiz-adv-x="1236" 
d="M1086 754v-45c0 -61 -49 -110 -109 -110h-977v46c0 60 49 109 109 109h977zM1086 406v-46c0 -60 -49 -109 -109 -109h-977v45c0 61 49 110 109 110h977z" />
    <glyph glyph-name="greater" unicode="&#x3e;" horiz-adv-x="1359" 
d="M1099 447l-1099 -426v51c0 72 37 126 110 162l944 365l-944 366c-73 36 -110 90 -110 161v51l1099 -426c47 -19 79 -51 98 -96l12 -47v-9v-9l-12 -46c-19 -45 -51 -78 -98 -97z" />
    <glyph glyph-name="question" unicode="?" horiz-adv-x="1033" 
d="M329 314c-60 0 -109 49 -109 109v124c0 72 29 130 88 175c38 27 123 41 135 41c11 0 21 1 32 2c49 8 91 29 126 64c43 43 65 96 65 158s-22 115 -65 158c-44 44 -97 66 -158 66h-224c-49 0 -92 14 -130 42c-59 45 -89 104 -89 176h441c122 0 226 -43 312 -129
c27 -27 50 -56 69 -89c41 -67 61 -142 61 -223s-20 -156 -61 -223c-19 -33 -42 -62 -69 -89c-86 -86 -190 -129 -312 -129h-3v-123c-1 -63 -49 -110 -109 -110zM444 96c0 -63 -49 -112 -112 -112c-31 0 -57 11 -79 32c-22 22 -33 49 -33 80s11 57 33 79s48 33 79 33
s58 -11 79 -33c22 -22 33 -48 33 -79z" />
    <glyph glyph-name="at" unicode="@" horiz-adv-x="1089" 
d="M837 1056c68 -83 93 -187 74 -312c-5 -27 -12 -53 -21 -79c-11 -31 -24 -60 -41 -87c0 0 -44 -109 -159 -93c-88 13 -129 57 -123 132l23 127c5 34 -2 62 -21 85s-45 35 -78 35s-64 -12 -91 -35c-24 -21 -40 -46 -48 -76c-1 -3 -2 -6 -2 -9c-13 -68 6 -120 73 -120h35
c35 0 58 -17 69 -51c3 -11 3 -22 1 -34h-120c-69 0 -115 24 -139 72c-17 35 -13 88 -4 133c11 58 40 106 85 145c10 8 20 15 31 22c39 25 81 38 125 38h3h4h1h2c2 0 4 0 6 -1c3 0 5 0 8 -1c3 0 5 0 8 -1c3 0 5 0 7 -1c3 -1 5 -1 8 -2c1 0 3 0 4 -1h2c1 -1 1 -1 2 -1
c2 -1 4 -1 6 -2s4 -1 5 -1c0 -1 0 -1 1 -1s1 0 1 -1c2 -1 4 -1 5 -1c1 -1 1 -1 2 -1c5 -2 9 -4 13 -7c5 -2 9 -4 12 -7l12 -9l1 -1c8 -6 15 -13 21 -21c32 -39 44 -87 35 -145l-23 -127c-8 -52 32 -86 81 -70c23 8 35 25 40 37c2 3 3 5 4 6c31 47 51 99 61 154
c16 105 -5 192 -62 261c-59 72 -140 108 -241 108c-102 0 -195 -36 -280 -108c-81 -69 -133 -156 -154 -261c-16 -105 5 -192 62 -261s138 -104 242 -107c84 -2 103 6 130 18c6 3 13 5 20 8c54 21 82 -29 81 -29c-45 -34 -83 -54 -114 -61c-31 -6 -74 -9 -130 -9
c-122 0 -218 43 -289 129c-69 83 -94 187 -75 312c25 125 88 230 187 314c100 85 211 127 333 127c121 0 218 -43 289 -129z" />
    <glyph glyph-name="A" unicode="A" horiz-adv-x="1524" 
d="M868 1305l506 -1306h-60c-85 0 -149 44 -192 131l-96 248h-604c0 56 20 104 59 143s87 59 142 59h324l-260 672l-435 -1122c-43 -87 -106 -131 -191 -131h-61l506 1306c23 56 62 95 115 117l55 15l11 -1l11 1l55 -15c54 -22 92 -61 115 -117z" />
    <glyph glyph-name="B" unicode="B" horiz-adv-x="1450" 
d="M852 0h-561c0 56 20 104 59 143s87 59 142 59h360c68 0 126 24 174 72s72 106 72 174s-24 126 -72 174s-106 72 -174 72h-516c0 55 20 103 59 142c39 40 87 60 142 60h248c47 0 88 16 121 49s50 74 50 121s-17 88 -50 121s-74 50 -121 50h-583v-1035
c-2 -57 -22 -105 -61 -144s-86 -58 -141 -58v1438h785c103 0 191 -36 264 -109s109 -160 109 -263l-1 -24c-6 -79 -33 -148 -80 -207c34 -19 65 -43 92 -71c87 -87 131 -193 131 -316c0 -124 -44 -230 -131 -317s-193 -131 -317 -131z" />
    <glyph glyph-name="C" unicode="C" horiz-adv-x="1395" 
d="M1245 0h-526c-201 0 -370 70 -509 211c-140 140 -210 309 -210 508c0 203 73 376 219 517c139 135 306 202 500 202h526c0 -56 -20 -104 -59 -143s-87 -59 -143 -59h-306c-143 0 -265 -51 -366 -152s-152 -222 -152 -365s51 -265 152 -366s223 -152 366 -152h306
c56 0 104 -20 143 -59s59 -87 59 -142z" />
    <glyph glyph-name="D" unicode="D" horiz-adv-x="1428" 
d="M559 0h-307c0 55 20 103 59 142c39 40 87 60 143 60h105c143 0 264 50 365 151s152 223 152 366s-51 264 -152 365s-222 152 -365 152h-357v-1034c0 -56 -20 -104 -59 -143s-87 -59 -143 -59v1438h559c194 0 359 -66 495 -198c137 -131 211 -295 223 -492l1 -29l-1 -28
c-11 -192 -81 -352 -210 -480c-140 -141 -309 -211 -508 -211z" />
    <glyph glyph-name="E" unicode="E" horiz-adv-x="1107" 
d="M633 732h-386c0 56 20 104 59 143s87 59 142 59h386c0 -56 -20 -104 -59 -143s-87 -59 -142 -59zM957 0h-949h-8v1438h957c0 -55 -20 -103 -59 -142s-87 -59 -142 -59h-554v-1035h554c55 0 103 -20 142 -59s59 -87 59 -143z" />
    <glyph glyph-name="F" unicode="F" horiz-adv-x="1107" 
d="M633 720h-386c0 55 20 103 59 142c39 40 87 60 143 60h386c0 -56 -20 -104 -59 -143s-87 -59 -143 -59zM0 0v1438h957c0 -55 -20 -103 -59 -143c-39 -39 -87 -59 -142 -59h-554v-1034c0 -56 -20 -104 -59 -143s-87 -59 -143 -59z" />
    <glyph glyph-name="G" unicode="G" horiz-adv-x="1584" 
d="M717 0l-16 1c-197 9 -361 79 -490 210c-141 141 -211 310 -211 508c0 203 73 376 220 518c139 134 305 201 499 201h526c0 -55 -20 -103 -59 -142s-87 -59 -142 -59h-307c-143 0 -265 -51 -366 -152s-151 -223 -151 -366c0 -157 59 -287 178 -390
c92 -73 198 -109 317 -109c143 0 265 51 366 152c97 96 147 217 152 362v4h-544c0 56 20 104 59 143s87 59 142 59h544v-221c0 -200 -70 -369 -210 -508c-136 -135 -305 -206 -507 -211z" />
    <glyph glyph-name="H" unicode="H" horiz-adv-x="1308" 
d="M0 0v1438c56 0 104 -20 143 -59s59 -87 59 -143v-1035c0 -55 -20 -103 -59 -142s-87 -59 -143 -59zM1158 0v1438c-56 0 -104 -20 -143 -59s-59 -87 -59 -143v-303h-506c-55 0 -103 -20 -142 -59s-59 -87 -59 -142h707v-531c0 -55 20 -103 59 -142s87 -59 143 -59z" />
    <glyph glyph-name="I" unicode="I" horiz-adv-x="352" 
d="M0 0v1236c0 56 20 104 59 143s87 59 143 59v-1237c0 -55 -20 -103 -60 -142c-39 -39 -87 -59 -142 -59z" />
    <glyph glyph-name="J" unicode="J" horiz-adv-x="1055" 
d="M453 0c-93 0 -177 25 -251 76c-135 94 -202 219 -202 376v167c61 0 112 -24 153 -71c33 -37 49 -80 49 -131v19c0 -69 24 -129 73 -178s109 -73 178 -73c68 0 126 23 173 69c48 47 74 104 78 173v822c0 56 20 104 59 143s87 59 142 59v-999c0 -157 -67 -282 -201 -376
c-75 -51 -158 -76 -251 -76z" />
    <glyph glyph-name="K" unicode="K" horiz-adv-x="1336" 
d="M0 0v1438c56 0 104 -20 143 -59s59 -87 59 -143v-1034c0 -56 -20 -104 -59 -143s-87 -59 -143 -59zM1186 0c-132 0 -222 13 -271 40c-53 25 -97 59 -130 100l-529 579l529 579c33 41 77 75 130 101c49 26 139 39 271 39l-657 -719z" />
    <glyph glyph-name="L" unicode="L" horiz-adv-x="1098" 
d="M948 0h-948v1438c56 0 104 -20 143 -59s59 -87 59 -143v-1034h544c56 0 104 -20 143 -59s59 -87 59 -143z" />
    <glyph glyph-name="M" unicode="M" horiz-adv-x="1750" 
d="M1600 0c-56 0 -104 20 -143 59s-59 87 -59 142v707l-435 -707c-15 -23 -33 -43 -54 -58c-33 -23 -69 -36 -109 -38c-40 2 -77 15 -110 38c-21 15 -38 35 -53 58l-436 707v-707c0 -55 -20 -103 -59 -142s-87 -59 -142 -59v1438c55 0 103 -20 142 -59c17 -17 31 -37 41 -59
l1 1l616 -1000l615 1000l2 -1c10 22 23 42 40 59c39 39 87 59 143 59v-1438zM1159 1423l-2 3h2v-3z" />
    <glyph glyph-name="N" unicode="N" horiz-adv-x="1306" 
d="M0 0v1438c65 0 118 -26 159 -77l794 -898l1 769c0 56 20 104 59 143s87 59 143 59l-1 -1439c-65 19 -118 54 -159 105l-794 908v-806c0 -56 -20 -104 -59 -143s-87 -59 -143 -59z" />
    <glyph glyph-name="O" unicode="O" horiz-adv-x="1581" 
d="M716 0c-198 0 -367 70 -507 209c-139 140 -209 309 -209 507c0 203 70 374 209 513c140 140 309 210 507 210c197 0 366 -70 505 -210c140 -139 210 -308 210 -506c0 -203 -70 -374 -210 -514c-139 -139 -308 -209 -505 -209zM722 223c139 0 257 49 356 147
c99 99 148 217 148 356s-49 258 -148 356c-99 99 -217 148 -356 148s-258 -49 -357 -148c-98 -98 -147 -217 -147 -356s49 -257 147 -356c99 -98 218 -147 357 -147z" />
    <glyph glyph-name="P" unicode="P" horiz-adv-x="1308" 
d="M0 0v1439h736c116 0 215 -41 298 -124s124 -182 124 -299c0 -116 -41 -215 -124 -298c-82 -83 -181 -124 -298 -124h-394c0 56 20 104 59 143s87 59 143 59h192c61 0 112 21 155 64s65 95 65 156s-22 113 -65 156s-94 65 -155 65h-534v-1035c0 -55 -20 -103 -60 -143
c-39 -39 -87 -59 -142 -59z" />
    <glyph glyph-name="Q" unicode="Q" horiz-adv-x="1623" 
d="M1308 -24c-40 0 -79 12 -116 37l-118 82c-108 -64 -227 -96 -358 -96c-198 0 -367 70 -507 209c-139 140 -209 309 -209 506c0 203 70 374 209 513c140 140 309 210 507 210c197 0 366 -70 505 -210c140 -139 210 -308 210 -506c0 -193 -64 -358 -192 -495l234 -164
c-43 -57 -98 -86 -165 -86zM722 221c50 0 98 7 143 21l-254 178c43 57 98 86 166 86c39 0 77 -12 114 -36l169 -119c110 101 165 226 165 373c0 139 -49 258 -148 356c-98 99 -216 148 -355 148s-258 -49 -357 -148c-98 -98 -147 -217 -147 -356s49 -257 147 -356
c99 -98 218 -147 357 -147z" />
    <glyph glyph-name="R" unicode="R" horiz-adv-x="1308" 
d="M1059 -1c-18 0 -45 5 -80 15s-67 40 -96 89l-275 491h-266c0 55 20 103 59 142s87 59 143 59h192c61 0 112 21 155 64s65 96 65 157s-22 112 -65 155s-94 65 -155 65h-534v-1035c0 -55 -20 -103 -60 -142c-39 -39 -87 -59 -142 -59v1438h736c116 0 215 -41 298 -124
s124 -182 124 -298c0 -117 -41 -216 -124 -299c-56 -55 -123 -93 -202 -112l326 -580c-33 -17 -66 -26 -99 -26z" />
    <glyph glyph-name="S" unicode="S" horiz-adv-x="1316" 
d="M755 0h-755c0 55 20 103 59 142s87 59 143 59h548c53 0 100 17 141 52c49 41 73 93 73 156c0 59 -20 109 -61 150s-90 62 -148 62h-369c-145 14 -255 81 -329 201c-38 63 -57 133 -57 209c0 115 40 212 121 291c80 81 177 121 290 121h755c0 -56 -20 -104 -59 -143
s-87 -59 -142 -59h-554c-57 0 -107 -21 -148 -62s-61 -90 -61 -148c0 -55 18 -102 55 -141c41 -45 93 -68 154 -68h367c146 -12 256 -79 331 -201v-1c38 -63 57 -133 57 -209c0 -77 -19 -147 -57 -210c-85 -134 -203 -201 -354 -201z" />
    <glyph glyph-name="T" unicode="T" horiz-adv-x="1446" 
d="M547 0v1237h-547c0 55 20 103 59 142s87 59 143 59h1094c0 -55 -20 -103 -60 -142c-39 -39 -87 -59 -142 -59h-345v-1035c0 -56 -20 -104 -59 -143s-87 -59 -143 -59z" />
    <glyph glyph-name="U" unicode="U" horiz-adv-x="1173" 
d="M512 0c-117 0 -220 35 -310 104c-135 105 -202 241 -202 407v927c56 0 104 -20 143 -59s59 -87 59 -143v-725c0 -85 30 -158 90 -219c61 -61 134 -91 220 -91c85 0 158 30 219 91s91 134 91 219v725c0 56 20 104 59 143s87 59 142 59v-927c0 -166 -67 -302 -201 -407
c-90 -69 -193 -104 -310 -104z" />
    <glyph glyph-name="V" unicode="V" horiz-adv-x="1524" 
d="M698 0h-22l-55 15c-53 22 -92 61 -115 116l-506 1307h61c85 0 149 -44 192 -132l434 -1121l435 1121c43 88 107 132 192 132h60l-506 -1307c-23 -55 -61 -94 -115 -116z" />
    <glyph glyph-name="W" unicode="W" horiz-adv-x="2106" 
d="M1334 15l-55 -15l-11 1l-11 -1l-54 15c-54 23 -93 62 -116 117l-109 283l-110 -283c-23 -55 -61 -94 -115 -117l-55 -15l-11 1l-11 -1l-55 15c-53 23 -92 62 -115 117l-506 1306h61c85 0 149 -44 192 -131l434 -1122l190 490l-296 763h61c85 0 149 -44 192 -131l144 -372
l144 372c43 87 107 131 192 131h60l-295 -763l189 -490l435 1122c43 87 107 131 192 131h61l-507 -1306c-23 -55 -61 -94 -115 -117z" />
    <glyph glyph-name="X" unicode="X" horiz-adv-x="1375" 
d="M1107 0c-11 0 -32 2 -64 7c-31 5 -64 31 -99 76l-332 458l-331 -458c-43 -55 -97 -83 -163 -83c-41 0 -81 13 -118 38l488 674l-488 675c37 25 77 38 118 38c11 0 32 -3 63 -8c32 -5 65 -30 100 -75l331 -458l332 458c43 55 97 83 163 83c41 0 81 -13 118 -38l-488 -675
l488 -674c-37 -25 -77 -38 -118 -38z" />
    <glyph glyph-name="Y" unicode="Y" horiz-adv-x="1376" 
d="M512 0v680c-171 235 -342 471 -512 707c38 25 78 38 119 38c66 0 120 -28 163 -83l331 -458l331 458c35 45 68 70 100 75s53 8 63 8c41 0 81 -13 119 -38l-489 -674l-23 -33v-479c0 -55 -20 -103 -59 -142s-87 -59 -143 -59z" />
    <glyph glyph-name="Z" unicode="Z" horiz-adv-x="1375" 
d="M1024 0h-1024c0 29 13 64 39 107l39 57l791 1060h-869c0 55 20 103 59 142s87 59 142 59h1024c0 -28 -12 -63 -37 -105l-38 -57l-793 -1062h868c0 -55 -20 -103 -59 -142s-87 -59 -142 -59z" />
    <glyph glyph-name="bracketleft" unicode="[" horiz-adv-x="546" 
d="M396 152v-152h-396v1446h396v-152h-177v-1142h177z" />
    <glyph glyph-name="backslash" unicode="\" horiz-adv-x="1215" 
d="M329 1256l736 -1256c-135 0 -245 63 -329 188l-736 1257c135 0 245 -63 329 -189z" />
    <glyph glyph-name="bracketright" unicode="]" horiz-adv-x="546" 
d="M396 0h-396v152h177v1142h-177v152h396v-1446z" />
    <glyph glyph-name="asciicircum" unicode="^" horiz-adv-x="752" 
d="M542 837c-42 0 -77 20 -105 60l-136 235l-135 -235c-28 -40 -63 -60 -105 -60c-21 0 -41 5 -61 16l301 521l301 -521c-19 -11 -39 -16 -60 -16z" />
    <glyph glyph-name="underscore" unicode="_" horiz-adv-x="1236" 
d="M1086 155v-46c0 -60 -49 -109 -109 -109h-977v46c0 60 49 109 109 109h977z" />
    <glyph glyph-name="grave" unicode="`" horiz-adv-x="611" 
d="M170 1375l291 -296h-69l-330 202c-41 27 -62 53 -62 82c0 41 30 71 74 71c27 0 49 -12 96 -59z" />
    <glyph glyph-name="a" unicode="a" 
d="M972 0c-78 0 -138 36 -179 109c-15 28 -22 59 -22 92v285c0 79 -28 146 -84 201c-55 56 -122 84 -201 84s-146 -28 -201 -84c-55 -55 -83 -122 -83 -201s28 -146 83 -202c55 -55 122 -83 201 -83h83c83 0 144 -40 185 -121c11 -25 17 -51 17 -80h-285
c-162 0 -293 67 -394 201c-61 84 -92 179 -92 285c0 135 47 249 142 344s210 142 344 142h25c17 -1 35 -3 52 -6c23 -3 41 -7 56 -12c19 -5 36 -11 52 -18c35 -15 67 -33 97 -54l3 -2c21 -15 40 -32 59 -50c95 -95 142 -209 142 -344v-486z" />
    <glyph glyph-name="b" unicode="b" 
d="M486 0h-284c0 29 5 55 16 80c41 81 102 121 185 121h83c79 0 146 28 201 83c56 56 84 123 84 202s-28 146 -84 201c-55 56 -122 84 -201 84s-146 -28 -201 -84c-55 -55 -83 -122 -83 -201v-285c0 -33 -8 -64 -23 -92c-41 -73 -101 -109 -179 -109v1431
c56 0 104 -20 143 -59s59 -87 59 -142v-350l2 2c20 15 41 27 63 38c75 38 121 45 181 51c11 1 23 1 38 1c135 0 249 -47 344 -142s142 -209 142 -344c0 -106 -30 -201 -91 -285c-101 -134 -232 -201 -395 -201z" />
    <glyph glyph-name="c" unicode="c" horiz-adv-x="1099" 
d="M486 0c-129 0 -244 47 -344 142c-95 105 -142 219 -142 344s47 239 142 344c100 95 215 142 344 142c125 0 239 -47 344 -142c57 -58 96 -123 119 -196c-31 -17 -63 -26 -97 -26c-55 0 -103 20 -144 59l-21 20c-58 55 -125 83 -201 84c-73 0 -140 -28 -201 -84
c-55 -61 -83 -128 -83 -201s28 -140 83 -201c61 -56 128 -84 201 -84c76 0 143 28 201 84l21 20c34 33 64 51 90 54s43 5 52 5c35 0 68 -9 99 -26c-23 -73 -62 -138 -119 -196c-105 -95 -219 -142 -344 -142z" />
    <glyph glyph-name="d" unicode="d" 
d="M486 0c-134 0 -249 47 -344 142s-142 210 -142 344s47 249 142 344c55 55 120 94 195 119c47 15 97 23 149 23h228c-1 -56 -21 -104 -60 -143s-86 -58 -141 -58h-27c-78 0 -145 -28 -201 -84c-55 -55 -83 -122 -83 -201s28 -146 83 -202c56 -55 123 -83 201 -83
c79 0 146 28 201 83c56 56 84 123 84 202v744c0 55 20 103 59 142s87 59 142 59v-945c0 -134 -48 -249 -143 -344s-209 -142 -343 -142z" />
    <glyph glyph-name="e" unicode="e" 
d="M879 0h-393c-134 0 -249 47 -344 142s-142 210 -142 344c0 135 47 249 142 344s210 142 344 142s249 -47 344 -142c67 -67 111 -148 132 -243c7 -33 10 -66 10 -101s-3 -68 -10 -100h-710c0 55 20 103 59 142s87 59 142 59h299c-15 39 -36 72 -65 101
c-55 55 -122 83 -201 83s-146 -28 -201 -84c-55 -55 -83 -122 -83 -201s28 -146 83 -201s122 -83 201 -83h192c58 0 107 -21 147 -64c36 -39 54 -85 54 -138z" />
    <glyph glyph-name="f" unicode="f" horiz-adv-x="1164" 
d="M235 0v750h-235c0 25 6 49 18 71c40 69 112 111 217 128v16c0 106 31 201 92 285c101 134 232 201 394 201h293c0 -55 -20 -103 -60 -142c-39 -39 -87 -59 -142 -59h-91c-79 0 -146 -28 -201 -84c-55 -55 -83 -122 -83 -201v-13h500c0 -56 -28 -104 -84 -143
s-124 -59 -203 -59h-213v-549c0 -55 -20 -103 -60 -142c-39 -39 -87 -59 -142 -59z" />
    <glyph glyph-name="g" unicode="g" 
d="M486 -415h-486c0 78 36 138 109 179c29 15 60 22 93 22h284c79 0 146 28 201 84c56 55 84 122 84 201v21c-83 -61 -178 -92 -285 -92c-101 0 -191 28 -272 83c-62 42 -112 95 -149 160c-43 74 -65 155 -65 243c0 134 47 248 142 343s210 143 344 143h486
c0 -55 -20 -103 -59 -142s-87 -59 -142 -59h-285c-79 0 -146 -28 -201 -84c-55 -55 -83 -122 -83 -201c0 -29 4 -56 12 -82c22 -69 63 -123 124 -161c44 -27 93 -41 148 -41s104 14 149 41c61 38 102 92 124 161c8 26 12 53 12 82c0 49 15 91 45 127c41 50 93 75 156 75
v-617c0 -135 -48 -249 -143 -344s-209 -142 -343 -142z" />
    <glyph glyph-name="h" unicode="h" 
d="M972 0c-78 0 -138 36 -179 109c-15 29 -22 60 -22 93c0 196 0 297 -1 304c-7 72 -34 132 -83 181c-55 56 -122 84 -201 84s-146 -28 -201 -84c-55 -55 -83 -122 -83 -201v-284c0 -33 -8 -64 -23 -93c-41 -73 -101 -109 -179 -109v1431c56 0 104 -20 143 -59
s59 -87 59 -142v-350c21 15 42 29 65 40c69 35 142 52 219 52c102 0 196 -30 282 -89c19 -13 40 -31 62 -53c95 -95 142 -209 142 -344v-486zM606 1021l-20 29c7 -9 14 -19 20 -29z" />
    <glyph glyph-name="i" unicode="i" horiz-adv-x="352" 
d="M0 0v771c0 55 20 103 59 142c40 39 88 59 143 59v-770c0 -56 -20 -104 -59 -143s-87 -59 -143 -59zM0 1084v68c0 55 20 103 59 142c40 39 88 59 143 59v-68c0 -55 -20 -103 -59 -142s-87 -59 -143 -59z" />
    <glyph glyph-name="j" unicode="j" 
d="M972 968h-42c14 3 28 4 42 4v-4zM771 1084v68c0 55 20 103 59 142s87 59 142 59v-68c0 -55 -20 -103 -59 -142s-87 -59 -142 -59zM486 -419h-486c0 77 36 136 109 177c29 15 60 23 93 23h284c79 0 146 28 201 83c56 55 84 121 84 199v709c0 48 15 90 45 126s68 59 114 70
h42v-905c0 -105 -31 -199 -92 -282c-16 -22 -33 -42 -50 -59c-95 -94 -210 -141 -344 -141z" />
    <glyph glyph-name="k" unicode="k" horiz-adv-x="1101" 
d="M0 0v1431c56 0 104 -20 143 -59s59 -87 59 -142v-1029c0 -55 -20 -103 -59 -142s-87 -59 -143 -59zM812 0c52 0 98 19 139 56l-404 424l211 202c41 40 61 74 62 102s1 43 1 44c0 51 -19 98 -56 139l-359 -339l-146 -139l406 -426c41 -41 75 -61 102 -62
c28 -1 43 -1 44 -1z" />
    <glyph glyph-name="l" unicode="l" horiz-adv-x="351" 
d="M201 0c-55 0 -103 20 -142 59s-59 87 -59 142v1353c55 0 103 -20 142 -59s59 -87 59 -143v-1352z" />
    <glyph glyph-name="m" unicode="m" horiz-adv-x="1893" 
d="M1743 0c-56 0 -104 20 -143 59s-59 87 -59 142v285c0 81 -28 148 -85 202c-56 55 -125 82 -207 82h-3c-76 -5 -139 -33 -190 -85c-50 -51 -78 -115 -83 -191c-1 -5 -1 -170 -1 -494c-57 1 -104 21 -143 60s-58 86 -58 141v298c-6 79 -36 144 -91 195
c-54 51 -120 76 -198 76h-6c-79 -5 -144 -35 -196 -91s-78 -123 -78 -200v-278c0 -55 -20 -103 -59 -142s-87 -59 -143 -59v972c56 0 104 -20 143 -59c15 -15 27 -31 37 -50c88 73 190 109 307 109c157 0 285 -63 385 -189c100 126 228 189 385 189c134 0 248 -48 343 -143
s143 -209 143 -343v-486z" />
    <glyph glyph-name="n" unicode="n" 
d="M972 0c-55 0 -103 20 -142 59s-59 87 -59 142v285c0 80 -28 147 -85 202s-126 82 -207 82h-3c-79 -5 -145 -35 -197 -91s-78 -123 -78 -200v-278c0 -55 -20 -103 -59 -142s-87 -59 -142 -59v972c55 0 103 -20 142 -59c15 -15 27 -31 37 -50c88 73 190 109 307 109
c134 0 248 -48 343 -143s143 -209 143 -343v-486z" />
    <glyph glyph-name="o" unicode="o" horiz-adv-x="1123" 
d="M487 0c-135 0 -250 47 -345 142s-142 210 -142 344c0 135 47 249 142 344s210 142 345 142c134 0 248 -47 343 -142s143 -209 143 -344c0 -134 -48 -249 -143 -344s-209 -142 -343 -142zM487 202c78 0 145 28 200 83c56 55 84 122 84 201s-28 146 -84 201
c-55 56 -122 84 -200 84c-79 0 -146 -28 -202 -84c-55 -55 -83 -122 -83 -201s28 -146 83 -201c56 -55 123 -83 202 -83z" />
    <glyph glyph-name="p" unicode="p" 
d="M0 -419v905c0 135 47 249 142 344s210 142 344 142c135 0 249 -47 344 -142s142 -209 142 -344c0 -134 -47 -249 -142 -344c-55 -54 -119 -94 -194 -119c-48 -15 -98 -23 -150 -23h-228c1 56 20 104 59 143s87 59 143 59h26c79 0 146 28 201 83s83 122 83 201
s-28 146 -83 201c-55 56 -122 84 -201 84s-146 -28 -201 -84c-55 -55 -83 -122 -83 -201v-704c0 -55 -20 -103 -59 -142s-87 -59 -143 -59z" />
    <glyph glyph-name="q" unicode="q" 
d="M972 -409c-55 0 -103 20 -142 59s-59 87 -59 143v299l-3 -2c-20 -14 -41 -27 -63 -38c-72 -37 -122 -46 -180 -50c-11 -1 -24 -2 -39 -2c-134 0 -249 47 -344 142s-142 210 -142 344c0 107 31 202 92 285c101 134 232 201 394 201h285c0 -28 -6 -55 -17 -80
c-41 -81 -102 -121 -185 -121h-83c-79 0 -146 -28 -201 -84c-55 -55 -83 -122 -83 -201s28 -146 83 -201s122 -83 201 -83s146 28 201 83c56 55 84 122 84 201v285c0 33 7 64 22 92c41 73 101 109 179 109v-1381z" />
    <glyph glyph-name="r" unicode="r" horiz-adv-x="885" 
d="M735 972c0 -22 -3 -43 -10 -63c-11 -31 -27 -57 -49 -80c-39 -39 -87 -59 -143 -59h-47c-79 0 -146 -28 -201 -83c-56 -55 -84 -122 -84 -201v-285c0 -33 -7 -64 -22 -92c-41 -73 -101 -109 -179 -109v972c55 0 103 -20 142 -59c15 -15 27 -31 37 -50
c88 73 190 109 307 109h249z" />
    <glyph glyph-name="s" unicode="s" horiz-adv-x="737" 
d="M293 0h-293c0 55 20 103 59 142s87 59 142 59h92c51 0 92 41 92 92s-41 92 -92 92c-32 0 -63 5 -92 15c-51 17 -94 46 -129 86c-48 55 -72 119 -72 193c0 81 28 150 85 207s127 86 208 86h294c0 -50 -16 -94 -49 -131c-41 -47 -92 -71 -153 -71h-92
c-51 0 -92 -40 -92 -91s41 -92 92 -92c90 0 164 -34 221 -101c49 -55 73 -119 73 -193c0 -81 -29 -150 -86 -207s-127 -86 -208 -86z" />
    <glyph glyph-name="t" unicode="t" horiz-adv-x="1084" 
d="M934 0h-241c-110 0 -207 32 -292 97c-130 101 -195 230 -195 389v361h-206c0 25 6 49 19 71c35 61 97 102 187 123v419c56 0 104 -20 143 -60c39 -39 59 -87 59 -142v-209h526c0 -56 -28 -104 -84 -143c-55 -39 -123 -59 -202 -59h-240v-348c0 -79 28 -146 83 -201
c56 -55 123 -83 202 -83h13c104 0 177 -52 219 -155c6 -19 9 -39 9 -60z" />
    <glyph glyph-name="u" unicode="u" horiz-adv-x="1123" 
d="M973 0c-56 0 -104 20 -143 59c-15 15 -27 32 -36 51c-89 -73 -191 -110 -307 -110c-135 0 -250 47 -345 142s-142 210 -142 345v486c56 0 104 -20 143 -59s59 -87 59 -143v-284c0 -81 28 -148 84 -203c57 -55 126 -82 208 -82h3c79 5 144 36 196 92s78 122 78 199v278
c0 56 20 104 59 143s87 59 143 59v-973z" />
    <glyph glyph-name="v" unicode="v" horiz-adv-x="1151" 
d="M501 0l-501 867c33 18 66 27 101 27c69 0 127 -34 174 -101l226 -390l225 390c47 67 105 101 175 101c34 0 67 -9 100 -27z" />
    <glyph glyph-name="w" unicode="w" horiz-adv-x="1521" 
d="M871 0l-185 321l-185 -321l-501 867c33 18 66 27 101 27c69 0 127 -34 174 -101l226 -390l185 321l185 -321l225 390c47 67 105 101 175 101c34 0 67 -9 100 -27z" />
    <glyph glyph-name="x" unicode="x" horiz-adv-x="1006" 
d="M793 0l-365 386l-365 -386c-42 42 -63 91 -63 146c0 51 18 98 55 139l235 248l-290 306c41 37 88 55 139 55c1 0 16 -1 44 -2s62 -21 102 -61l143 -152l143 152c43 42 92 63 147 63c51 0 97 -18 138 -55l-289 -306l234 -248c37 -41 55 -88 55 -139c0 -1 0 -16 -1 -44
s-21 -62 -62 -102z" />
    <glyph glyph-name="y" unicode="y" 
d="M486 -416h-486c0 78 36 138 109 179c29 15 60 23 93 23h284c79 0 146 28 201 83c56 55 84 122 84 201v21c-52 -37 -110 -64 -174 -79c-37 -9 -74 -13 -111 -13c-55 0 -106 8 -153 25c-23 7 -52 20 -88 39c-39 25 -69 47 -90 67c-49 47 -85 97 -109 148
c-27 58 -42 118 -45 181c-1 9 -1 180 -1 513c78 0 138 -37 179 -110c15 -28 23 -59 23 -92v-305c3 -39 13 -75 31 -110c22 -43 53 -78 94 -105c46 -33 99 -49 159 -49c42 0 80 8 115 24c21 9 37 18 48 27c34 23 61 52 81 86c22 37 35 75 39 116c1 10 2 115 2 316
c0 33 7 64 22 92c41 73 101 110 179 110v-902c0 -134 -47 -248 -142 -343s-209 -143 -344 -143z" />
    <glyph glyph-name="z" unicode="z" horiz-adv-x="1137" 
d="M986 0h-986c0 37 9 71 28 102l571 668h-395c-56 0 -104 20 -143 59c-39 40 -59 88 -59 143h985c0 -45 -13 -85 -39 -120l-556 -651h392c56 0 104 -20 143 -59s59 -87 59 -142z" />
    <glyph glyph-name="braceleft" unicode="{" horiz-adv-x="579" 
d="M429 0h-53c-77 1 -242 16 -286 132c-6 15 -9 33 -9 52c0 29 7 62 20 100c35 98 53 177 53 238c0 25 -7 58 -20 99s-55 66 -126 75h-8v66h9c71 9 116 43 136 104c5 17 8 37 8 60c0 59 -17 137 -52 235c-15 43 -22 80 -22 111c0 57 21 99 64 127c48 31 107 46 176 46h46
l64 -3c0 -28 -52 -87 -90 -97c-28 -4 -53 -14 -74 -29s-31 -41 -31 -80v-37c1 -22 21 -76 61 -163c30 -67 45 -122 45 -166c0 -77 -40 -128 -121 -152c51 -13 88 -42 110 -89c7 -15 11 -34 11 -55c0 -43 -15 -98 -45 -165c-41 -88 -61 -155 -61 -200c0 -39 10 -66 31 -81
s46 -24 74 -28c27 -7 52 -28 76 -62c9 -14 14 -27 14 -38z" />
    <glyph glyph-name="bar" unicode="|" horiz-adv-x="369" 
d="M219 -260h-219v1813h219v-1813z" />
    <glyph glyph-name="braceright" unicode="}" horiz-adv-x="580" 
d="M53 0h-53c0 11 5 24 15 38c23 34 48 55 75 62c29 4 53 13 74 28s32 43 32 84c0 42 -21 108 -62 197c-29 67 -44 121 -44 164c0 22 4 41 11 56c22 47 59 76 110 89c-81 24 -121 75 -121 152c0 44 15 99 44 166c40 87 60 141 61 162c1 22 1 34 1 35c0 41 -11 68 -32 83
s-45 25 -74 29c-38 10 -90 69 -90 97c45 2 81 3 110 3c69 0 128 -15 176 -46c43 -29 65 -71 65 -126c0 -31 -8 -69 -23 -112c-35 -98 -52 -176 -52 -235c0 -23 3 -43 8 -60c20 -61 65 -95 136 -104h10v-66h-8c-71 -9 -114 -34 -127 -75s-19 -75 -19 -100
c0 -61 17 -140 52 -237c13 -38 20 -71 20 -100c0 -19 -3 -37 -9 -52c-42 -116 -208 -131 -286 -132z" />
    <glyph glyph-name="asciitilde" unicode="~" horiz-adv-x="979" 
d="M829 878v-156c-84 -96 -162 -123 -238 -123c-40 0 -99 16 -178 48c-78 33 -137 49 -176 49c-34 0 -70 -9 -108 -28c-37 -19 -80 -56 -129 -112v156c85 97 164 125 237 125c43 0 103 -17 181 -50c79 -33 136 -49 173 -49c35 0 71 9 108 28c38 19 81 56 130 112z" />
    <glyph glyph-name="quoteleft" unicode="&#x2018;" horiz-adv-x="402" 
d="M199 1539c12 0 25 -2 38 -5l-12 -18c-9 -13 -18 -29 -28 -49c-19 -40 -29 -77 -29 -110c0 -9 1 -19 2 -29c34 -21 52 -53 54 -95c-1 -61 -48 -109 -109 -113c-65 0 -115 49 -115 112l1 27c0 52 21 161 106 244c28 24 59 36 92 36z" />
    <glyph glyph-name="quoteright" unicode="&#x2019;" horiz-adv-x="402" 
d="M38 1120c-12 0 -25 2 -38 5l13 19c8 12 17 28 27 49c19 39 29 76 29 109c0 10 -1 20 -2 29c-34 21 -52 53 -54 95c1 61 48 109 109 113c65 0 115 -49 115 -112v-27c-2 -53 -22 -161 -107 -244c-28 -24 -59 -36 -92 -36z" />
    <glyph glyph-name="quotesinglbase" unicode="&#x201a;" horiz-adv-x="402" 
d="M38 -194c-12 0 -25 2 -38 5l13 19c9 12 18 28 28 49c19 38 28 74 28 109c0 10 -1 20 -2 29c-33 21 -51 53 -54 94c1 63 48 110 109 113c65 0 116 -48 116 -112l-1 -26c-2 -53 -21 -162 -107 -244c-28 -24 -59 -36 -92 -36z" />
    <glyph glyph-name="quotedblleft" unicode="&#x201c;" horiz-adv-x="755" 
d="M374 1120c-65 0 -115 49 -115 112c1 36 5 68 11 95c14 68 47 127 98 176c27 23 58 35 91 35c12 0 25 -2 38 -5c-46 -64 -69 -125 -69 -182c0 -8 1 -16 2 -23c33 -22 51 -54 53 -96c0 -61 -48 -108 -109 -112zM114 1121c-65 0 -114 49 -114 112c1 36 4 68 10 95
c15 69 48 127 98 176c27 23 58 35 92 35c12 0 25 -2 38 -5l-13 -18c-38 -56 -57 -108 -57 -156c0 -11 1 -21 3 -32c33 -21 51 -53 53 -95c-1 -61 -49 -109 -110 -112z" />
    <glyph glyph-name="quotedblright" unicode="&#x201d;" horiz-adv-x="755" 
d="M38 1120c-12 0 -25 2 -38 5l13 19c8 12 17 28 27 49c19 39 29 74 29 107c0 11 -1 21 -3 31c-33 21 -51 53 -53 95c0 61 47 109 108 113c33 0 60 -11 82 -33c23 -21 34 -48 34 -79l-1 -27c-2 -53 -21 -160 -107 -244c-27 -24 -58 -36 -91 -36zM297 1120c-12 0 -25 2 -38 5
l13 19c8 12 17 28 27 49c19 39 29 75 29 107c0 10 -1 20 -3 31c-33 21 -51 53 -53 95c1 61 48 109 109 113c65 0 115 -49 115 -112v-27c-2 -53 -22 -161 -107 -244c-28 -24 -59 -36 -92 -36z" />
    <glyph glyph-name="uniF001" unicode="&#xf001;" horiz-adv-x="1073" 
 />
    <glyph glyph-name="uniF001" unicode="&#xfb01;" horiz-adv-x="1073" 
 />
    <glyph glyph-name="uniF002" unicode="&#xf002;" horiz-adv-x="1081" 
 />
    <glyph glyph-name="uniF002" unicode="&#xfb02;" horiz-adv-x="1081" 
 />
    </font>
</defs>
</svg>
